<mxfile host="app.diagrams.net" modified="2024-02-05T23:10:53.535Z" agent="Mozilla/5.0 (Windows NT 10.0; Win64; x64) AppleWebKit/537.36 (KHTML, like Gecko) Chrome/120.0.0.0 Safari/537.36 OPR/106.0.0.0" etag="47PwpwWrJRig1ZUpQ9r-" version="23.1.1" type="github">
  <diagram name="Seite-1" id="BCvQP6xBQCEgno5YxF53">
    <mxGraphModel dx="4666" dy="757" grid="1" gridSize="10" guides="1" tooltips="1" connect="1" arrows="1" fold="1" page="1" pageScale="1" pageWidth="827" pageHeight="1169" math="0" shadow="0">
      <root>
        <mxCell id="0" />
        <mxCell id="1" parent="0" />
        <mxCell id="5FuBZbfDRRa5YEsP70LU-209" value="" style="rounded=0;whiteSpace=wrap;html=1;fillColor=none;" parent="1" vertex="1">
          <mxGeometry x="-2650" y="80" width="940" height="330" as="geometry" />
        </mxCell>
        <mxCell id="5FuBZbfDRRa5YEsP70LU-216" value="" style="rounded=0;whiteSpace=wrap;html=1;fillColor=none;" parent="1" vertex="1">
          <mxGeometry x="-1630" y="210" width="1630" height="920" as="geometry" />
        </mxCell>
        <mxCell id="5FuBZbfDRRa5YEsP70LU-207" value="" style="rounded=0;whiteSpace=wrap;html=1;fillColor=none;" parent="1" vertex="1">
          <mxGeometry x="-1590" y="1310" width="1660" height="760" as="geometry" />
        </mxCell>
        <mxCell id="5FuBZbfDRRa5YEsP70LU-1" value="Entity" style="swimlane;fontStyle=1;align=center;verticalAlign=top;childLayout=stackLayout;horizontal=1;startSize=26;horizontalStack=0;resizeParent=1;resizeParentMax=0;resizeLast=0;collapsible=1;marginBottom=0;whiteSpace=wrap;html=1;" parent="1" vertex="1">
          <mxGeometry x="-910" y="870" width="156" height="190" as="geometry" />
        </mxCell>
        <mxCell id="5FuBZbfDRRa5YEsP70LU-2" value="- relPos: vec3" style="text;strokeColor=none;fillColor=none;align=left;verticalAlign=top;spacingLeft=4;spacingRight=4;overflow=hidden;rotatable=0;points=[[0,0.5],[1,0.5]];portConstraint=eastwest;whiteSpace=wrap;html=1;" parent="5FuBZbfDRRa5YEsP70LU-1" vertex="1">
          <mxGeometry y="26" width="156" height="26" as="geometry" />
        </mxCell>
        <mxCell id="5FuBZbfDRRa5YEsP70LU-5" value="- relRot: vec3" style="text;strokeColor=none;fillColor=none;align=left;verticalAlign=top;spacingLeft=4;spacingRight=4;overflow=hidden;rotatable=0;points=[[0,0.5],[1,0.5]];portConstraint=eastwest;whiteSpace=wrap;html=1;" parent="5FuBZbfDRRa5YEsP70LU-1" vertex="1">
          <mxGeometry y="52" width="156" height="26" as="geometry" />
        </mxCell>
        <mxCell id="5FuBZbfDRRa5YEsP70LU-6" value="- mesh: mesh" style="text;strokeColor=none;fillColor=none;align=left;verticalAlign=top;spacingLeft=4;spacingRight=4;overflow=hidden;rotatable=0;points=[[0,0.5],[1,0.5]];portConstraint=eastwest;whiteSpace=wrap;html=1;" parent="5FuBZbfDRRa5YEsP70LU-1" vertex="1">
          <mxGeometry y="78" width="156" height="26" as="geometry" />
        </mxCell>
        <mxCell id="5FuBZbfDRRa5YEsP70LU-7" value="- children: List&amp;lt;Entity&amp;gt;" style="text;strokeColor=none;fillColor=none;align=left;verticalAlign=top;spacingLeft=4;spacingRight=4;overflow=hidden;rotatable=0;points=[[0,0.5],[1,0.5]];portConstraint=eastwest;whiteSpace=wrap;html=1;" parent="5FuBZbfDRRa5YEsP70LU-1" vertex="1">
          <mxGeometry y="104" width="156" height="26" as="geometry" />
        </mxCell>
        <mxCell id="5FuBZbfDRRa5YEsP70LU-3" value="" style="line;strokeWidth=1;fillColor=none;align=left;verticalAlign=middle;spacingTop=-1;spacingLeft=3;spacingRight=3;rotatable=0;labelPosition=right;points=[];portConstraint=eastwest;strokeColor=inherit;" parent="5FuBZbfDRRa5YEsP70LU-1" vertex="1">
          <mxGeometry y="130" width="156" height="8" as="geometry" />
        </mxCell>
        <mxCell id="5FuBZbfDRRa5YEsP70LU-8" value="+ setParent(Entity entity)" style="text;strokeColor=none;fillColor=none;align=left;verticalAlign=top;spacingLeft=4;spacingRight=4;overflow=hidden;rotatable=0;points=[[0,0.5],[1,0.5]];portConstraint=eastwest;whiteSpace=wrap;html=1;" parent="5FuBZbfDRRa5YEsP70LU-1" vertex="1">
          <mxGeometry y="138" width="156" height="26" as="geometry" />
        </mxCell>
        <mxCell id="5FuBZbfDRRa5YEsP70LU-4" value="+ method(type): type" style="text;strokeColor=none;fillColor=none;align=left;verticalAlign=top;spacingLeft=4;spacingRight=4;overflow=hidden;rotatable=0;points=[[0,0.5],[1,0.5]];portConstraint=eastwest;whiteSpace=wrap;html=1;" parent="5FuBZbfDRRa5YEsP70LU-1" vertex="1">
          <mxGeometry y="164" width="156" height="26" as="geometry" />
        </mxCell>
        <mxCell id="5FuBZbfDRRa5YEsP70LU-9" value="&lt;i&gt;Aircraft&lt;/i&gt;" style="swimlane;fontStyle=1;align=center;verticalAlign=top;childLayout=stackLayout;horizontal=1;startSize=26;horizontalStack=0;resizeParent=1;resizeParentMax=0;resizeLast=0;collapsible=1;marginBottom=0;whiteSpace=wrap;html=1;" parent="1" vertex="1">
          <mxGeometry x="-1210" y="1410" width="156" height="138" as="geometry" />
        </mxCell>
        <mxCell id="5FuBZbfDRRa5YEsP70LU-10" value="+ field: type" style="text;strokeColor=none;fillColor=none;align=left;verticalAlign=top;spacingLeft=4;spacingRight=4;overflow=hidden;rotatable=0;points=[[0,0.5],[1,0.5]];portConstraint=eastwest;whiteSpace=wrap;html=1;" parent="5FuBZbfDRRa5YEsP70LU-9" vertex="1">
          <mxGeometry y="26" width="156" height="26" as="geometry" />
        </mxCell>
        <mxCell id="5FuBZbfDRRa5YEsP70LU-11" value="" style="line;strokeWidth=1;fillColor=none;align=left;verticalAlign=middle;spacingTop=-1;spacingLeft=3;spacingRight=3;rotatable=0;labelPosition=right;points=[];portConstraint=eastwest;strokeColor=inherit;" parent="5FuBZbfDRRa5YEsP70LU-9" vertex="1">
          <mxGeometry y="52" width="156" height="8" as="geometry" />
        </mxCell>
        <mxCell id="5FuBZbfDRRa5YEsP70LU-12" value="- update(float deltaTime)" style="text;strokeColor=none;fillColor=none;align=left;verticalAlign=top;spacingLeft=4;spacingRight=4;overflow=hidden;rotatable=0;points=[[0,0.5],[1,0.5]];portConstraint=eastwest;whiteSpace=wrap;html=1;" parent="5FuBZbfDRRa5YEsP70LU-9" vertex="1">
          <mxGeometry y="60" width="156" height="26" as="geometry" />
        </mxCell>
        <mxCell id="5FuBZbfDRRa5YEsP70LU-88" value="&lt;i&gt;- updatePhysics&lt;/i&gt;" style="text;strokeColor=none;fillColor=none;align=left;verticalAlign=top;spacingLeft=4;spacingRight=4;overflow=hidden;rotatable=0;points=[[0,0.5],[1,0.5]];portConstraint=eastwest;whiteSpace=wrap;html=1;" parent="5FuBZbfDRRa5YEsP70LU-9" vertex="1">
          <mxGeometry y="86" width="156" height="26" as="geometry" />
        </mxCell>
        <mxCell id="5FuBZbfDRRa5YEsP70LU-89" value="- &lt;i&gt;updateInputs&lt;/i&gt;" style="text;strokeColor=none;fillColor=none;align=left;verticalAlign=top;spacingLeft=4;spacingRight=4;overflow=hidden;rotatable=0;points=[[0,0.5],[1,0.5]];portConstraint=eastwest;whiteSpace=wrap;html=1;" parent="5FuBZbfDRRa5YEsP70LU-9" vertex="1">
          <mxGeometry y="112" width="156" height="26" as="geometry" />
        </mxCell>
        <mxCell id="5FuBZbfDRRa5YEsP70LU-13" value="Chessna172" style="swimlane;fontStyle=1;align=center;verticalAlign=top;childLayout=stackLayout;horizontal=1;startSize=26;horizontalStack=0;resizeParent=1;resizeParentMax=0;resizeLast=0;collapsible=1;marginBottom=0;whiteSpace=wrap;html=1;" parent="1" vertex="1">
          <mxGeometry x="-1200" y="1624" width="156" height="86" as="geometry" />
        </mxCell>
        <mxCell id="5FuBZbfDRRa5YEsP70LU-14" value="+ field: type" style="text;strokeColor=none;fillColor=none;align=left;verticalAlign=top;spacingLeft=4;spacingRight=4;overflow=hidden;rotatable=0;points=[[0,0.5],[1,0.5]];portConstraint=eastwest;whiteSpace=wrap;html=1;" parent="5FuBZbfDRRa5YEsP70LU-13" vertex="1">
          <mxGeometry y="26" width="156" height="26" as="geometry" />
        </mxCell>
        <mxCell id="5FuBZbfDRRa5YEsP70LU-15" value="" style="line;strokeWidth=1;fillColor=none;align=left;verticalAlign=middle;spacingTop=-1;spacingLeft=3;spacingRight=3;rotatable=0;labelPosition=right;points=[];portConstraint=eastwest;strokeColor=inherit;" parent="5FuBZbfDRRa5YEsP70LU-13" vertex="1">
          <mxGeometry y="52" width="156" height="8" as="geometry" />
        </mxCell>
        <mxCell id="5FuBZbfDRRa5YEsP70LU-16" value="+ method(type): type" style="text;strokeColor=none;fillColor=none;align=left;verticalAlign=top;spacingLeft=4;spacingRight=4;overflow=hidden;rotatable=0;points=[[0,0.5],[1,0.5]];portConstraint=eastwest;whiteSpace=wrap;html=1;" parent="5FuBZbfDRRa5YEsP70LU-13" vertex="1">
          <mxGeometry y="60" width="156" height="26" as="geometry" />
        </mxCell>
        <mxCell id="5FuBZbfDRRa5YEsP70LU-17" value="&lt;i&gt;Display&lt;/i&gt;" style="swimlane;fontStyle=1;align=center;verticalAlign=top;childLayout=stackLayout;horizontal=1;startSize=26;horizontalStack=0;resizeParent=1;resizeParentMax=0;resizeLast=0;collapsible=1;marginBottom=0;whiteSpace=wrap;html=1;" parent="1" vertex="1">
          <mxGeometry x="-930" y="1446" width="156" height="86" as="geometry" />
        </mxCell>
        <mxCell id="5FuBZbfDRRa5YEsP70LU-18" value="+ field: type" style="text;strokeColor=none;fillColor=none;align=left;verticalAlign=top;spacingLeft=4;spacingRight=4;overflow=hidden;rotatable=0;points=[[0,0.5],[1,0.5]];portConstraint=eastwest;whiteSpace=wrap;html=1;" parent="5FuBZbfDRRa5YEsP70LU-17" vertex="1">
          <mxGeometry y="26" width="156" height="26" as="geometry" />
        </mxCell>
        <mxCell id="5FuBZbfDRRa5YEsP70LU-19" value="" style="line;strokeWidth=1;fillColor=none;align=left;verticalAlign=middle;spacingTop=-1;spacingLeft=3;spacingRight=3;rotatable=0;labelPosition=right;points=[];portConstraint=eastwest;strokeColor=inherit;" parent="5FuBZbfDRRa5YEsP70LU-17" vertex="1">
          <mxGeometry y="52" width="156" height="8" as="geometry" />
        </mxCell>
        <mxCell id="5FuBZbfDRRa5YEsP70LU-20" value="+ method(type): type" style="text;strokeColor=none;fillColor=none;align=left;verticalAlign=top;spacingLeft=4;spacingRight=4;overflow=hidden;rotatable=0;points=[[0,0.5],[1,0.5]];portConstraint=eastwest;whiteSpace=wrap;html=1;" parent="5FuBZbfDRRa5YEsP70LU-17" vertex="1">
          <mxGeometry y="60" width="156" height="26" as="geometry" />
        </mxCell>
        <mxCell id="5FuBZbfDRRa5YEsP70LU-21" value="DisplayElement" style="swimlane;fontStyle=1;align=center;verticalAlign=top;childLayout=stackLayout;horizontal=1;startSize=26;horizontalStack=0;resizeParent=1;resizeParentMax=0;resizeLast=0;collapsible=1;marginBottom=0;whiteSpace=wrap;html=1;" parent="1" vertex="1">
          <mxGeometry x="-676" y="1364" width="156" height="86" as="geometry" />
        </mxCell>
        <mxCell id="5FuBZbfDRRa5YEsP70LU-22" value="+ field: type" style="text;strokeColor=none;fillColor=none;align=left;verticalAlign=top;spacingLeft=4;spacingRight=4;overflow=hidden;rotatable=0;points=[[0,0.5],[1,0.5]];portConstraint=eastwest;whiteSpace=wrap;html=1;" parent="5FuBZbfDRRa5YEsP70LU-21" vertex="1">
          <mxGeometry y="26" width="156" height="26" as="geometry" />
        </mxCell>
        <mxCell id="5FuBZbfDRRa5YEsP70LU-23" value="" style="line;strokeWidth=1;fillColor=none;align=left;verticalAlign=middle;spacingTop=-1;spacingLeft=3;spacingRight=3;rotatable=0;labelPosition=right;points=[];portConstraint=eastwest;strokeColor=inherit;" parent="5FuBZbfDRRa5YEsP70LU-21" vertex="1">
          <mxGeometry y="52" width="156" height="8" as="geometry" />
        </mxCell>
        <mxCell id="5FuBZbfDRRa5YEsP70LU-24" value="+ method(type): type" style="text;strokeColor=none;fillColor=none;align=left;verticalAlign=top;spacingLeft=4;spacingRight=4;overflow=hidden;rotatable=0;points=[[0,0.5],[1,0.5]];portConstraint=eastwest;whiteSpace=wrap;html=1;" parent="5FuBZbfDRRa5YEsP70LU-21" vertex="1">
          <mxGeometry y="60" width="156" height="26" as="geometry" />
        </mxCell>
        <mxCell id="5FuBZbfDRRa5YEsP70LU-33" value="AirspeedIndicator" style="swimlane;fontStyle=1;align=center;verticalAlign=top;childLayout=stackLayout;horizontal=1;startSize=26;horizontalStack=0;resizeParent=1;resizeParentMax=0;resizeLast=0;collapsible=1;marginBottom=0;whiteSpace=wrap;html=1;" parent="1" vertex="1">
          <mxGeometry x="-1033" y="1770" width="156" height="86" as="geometry" />
        </mxCell>
        <mxCell id="5FuBZbfDRRa5YEsP70LU-34" value="+ field: type" style="text;strokeColor=none;fillColor=none;align=left;verticalAlign=top;spacingLeft=4;spacingRight=4;overflow=hidden;rotatable=0;points=[[0,0.5],[1,0.5]];portConstraint=eastwest;whiteSpace=wrap;html=1;" parent="5FuBZbfDRRa5YEsP70LU-33" vertex="1">
          <mxGeometry y="26" width="156" height="26" as="geometry" />
        </mxCell>
        <mxCell id="5FuBZbfDRRa5YEsP70LU-35" value="" style="line;strokeWidth=1;fillColor=none;align=left;verticalAlign=middle;spacingTop=-1;spacingLeft=3;spacingRight=3;rotatable=0;labelPosition=right;points=[];portConstraint=eastwest;strokeColor=inherit;" parent="5FuBZbfDRRa5YEsP70LU-33" vertex="1">
          <mxGeometry y="52" width="156" height="8" as="geometry" />
        </mxCell>
        <mxCell id="5FuBZbfDRRa5YEsP70LU-36" value="+ method(type): type" style="text;strokeColor=none;fillColor=none;align=left;verticalAlign=top;spacingLeft=4;spacingRight=4;overflow=hidden;rotatable=0;points=[[0,0.5],[1,0.5]];portConstraint=eastwest;whiteSpace=wrap;html=1;" parent="5FuBZbfDRRa5YEsP70LU-33" vertex="1">
          <mxGeometry y="60" width="156" height="26" as="geometry" />
        </mxCell>
        <mxCell id="5FuBZbfDRRa5YEsP70LU-41" value="Welt" style="rounded=0;whiteSpace=wrap;html=1;" parent="1" vertex="1">
          <mxGeometry x="2340" y="170" width="120" height="60" as="geometry" />
        </mxCell>
        <mxCell id="5FuBZbfDRRa5YEsP70LU-181" style="edgeStyle=orthogonalEdgeStyle;rounded=0;orthogonalLoop=1;jettySize=auto;html=1;exitX=0.5;exitY=0;exitDx=0;exitDy=0;entryX=0.5;entryY=1;entryDx=0;entryDy=0;" parent="1" source="5FuBZbfDRRa5YEsP70LU-42" target="5FuBZbfDRRa5YEsP70LU-41" edge="1">
          <mxGeometry relative="1" as="geometry" />
        </mxCell>
        <mxCell id="5FuBZbfDRRa5YEsP70LU-42" value="Chessna182" style="rounded=0;whiteSpace=wrap;html=1;" parent="1" vertex="1">
          <mxGeometry x="2247" y="330" width="120" height="60" as="geometry" />
        </mxCell>
        <mxCell id="5FuBZbfDRRa5YEsP70LU-182" style="edgeStyle=orthogonalEdgeStyle;rounded=0;orthogonalLoop=1;jettySize=auto;html=1;exitX=0.5;exitY=0;exitDx=0;exitDy=0;entryX=0.5;entryY=1;entryDx=0;entryDy=0;" parent="1" source="5FuBZbfDRRa5YEsP70LU-43" target="5FuBZbfDRRa5YEsP70LU-42" edge="1">
          <mxGeometry relative="1" as="geometry" />
        </mxCell>
        <mxCell id="5FuBZbfDRRa5YEsP70LU-43" value="Cockpit" style="rounded=0;whiteSpace=wrap;html=1;" parent="1" vertex="1">
          <mxGeometry x="2160" y="430" width="120" height="60" as="geometry" />
        </mxCell>
        <mxCell id="5FuBZbfDRRa5YEsP70LU-183" style="edgeStyle=orthogonalEdgeStyle;rounded=0;orthogonalLoop=1;jettySize=auto;html=1;exitX=0.5;exitY=0;exitDx=0;exitDy=0;entryX=0.5;entryY=1;entryDx=0;entryDy=0;" parent="1" source="5FuBZbfDRRa5YEsP70LU-44" target="5FuBZbfDRRa5YEsP70LU-42" edge="1">
          <mxGeometry relative="1" as="geometry" />
        </mxCell>
        <mxCell id="5FuBZbfDRRa5YEsP70LU-44" value="Rumpf" style="rounded=0;whiteSpace=wrap;html=1;" parent="1" vertex="1">
          <mxGeometry x="2310" y="430" width="120" height="60" as="geometry" />
        </mxCell>
        <mxCell id="5FuBZbfDRRa5YEsP70LU-184" style="edgeStyle=orthogonalEdgeStyle;rounded=0;orthogonalLoop=1;jettySize=auto;html=1;exitX=0.5;exitY=0;exitDx=0;exitDy=0;entryX=0.5;entryY=1;entryDx=0;entryDy=0;" parent="1" source="5FuBZbfDRRa5YEsP70LU-46" target="5FuBZbfDRRa5YEsP70LU-42" edge="1">
          <mxGeometry relative="1" as="geometry" />
        </mxCell>
        <mxCell id="5FuBZbfDRRa5YEsP70LU-46" value="Controlsurface1" style="rounded=0;whiteSpace=wrap;html=1;" parent="1" vertex="1">
          <mxGeometry x="2489" y="430" width="121" height="60" as="geometry" />
        </mxCell>
        <mxCell id="5FuBZbfDRRa5YEsP70LU-185" style="edgeStyle=orthogonalEdgeStyle;rounded=0;orthogonalLoop=1;jettySize=auto;html=1;exitX=0.5;exitY=0;exitDx=0;exitDy=0;entryX=0.5;entryY=1;entryDx=0;entryDy=0;" parent="1" source="5FuBZbfDRRa5YEsP70LU-47" target="5FuBZbfDRRa5YEsP70LU-42" edge="1">
          <mxGeometry relative="1" as="geometry" />
        </mxCell>
        <mxCell id="5FuBZbfDRRa5YEsP70LU-47" value="Controlsurface1" style="rounded=0;whiteSpace=wrap;html=1;" parent="1" vertex="1">
          <mxGeometry x="2630" y="430" width="122" height="60" as="geometry" />
        </mxCell>
        <mxCell id="5FuBZbfDRRa5YEsP70LU-186" style="edgeStyle=orthogonalEdgeStyle;rounded=0;orthogonalLoop=1;jettySize=auto;html=1;exitX=0.5;exitY=0;exitDx=0;exitDy=0;entryX=0.5;entryY=1;entryDx=0;entryDy=0;" parent="1" source="5FuBZbfDRRa5YEsP70LU-48" target="5FuBZbfDRRa5YEsP70LU-42" edge="1">
          <mxGeometry relative="1" as="geometry" />
        </mxCell>
        <mxCell id="5FuBZbfDRRa5YEsP70LU-48" value="Controlsurface1" style="rounded=0;whiteSpace=wrap;html=1;" parent="1" vertex="1">
          <mxGeometry x="2770" y="430" width="121" height="60" as="geometry" />
        </mxCell>
        <mxCell id="5FuBZbfDRRa5YEsP70LU-188" style="edgeStyle=orthogonalEdgeStyle;rounded=0;orthogonalLoop=1;jettySize=auto;html=1;exitX=0.5;exitY=0;exitDx=0;exitDy=0;entryX=0.5;entryY=1;entryDx=0;entryDy=0;" parent="1" source="5FuBZbfDRRa5YEsP70LU-49" target="5FuBZbfDRRa5YEsP70LU-43" edge="1">
          <mxGeometry relative="1" as="geometry" />
        </mxCell>
        <mxCell id="5FuBZbfDRRa5YEsP70LU-49" value="CockpitKanzel" style="rounded=0;whiteSpace=wrap;html=1;" parent="1" vertex="1">
          <mxGeometry x="2247" y="550" width="120" height="60" as="geometry" />
        </mxCell>
        <mxCell id="5FuBZbfDRRa5YEsP70LU-175" style="edgeStyle=orthogonalEdgeStyle;rounded=0;orthogonalLoop=1;jettySize=auto;html=1;exitX=0.5;exitY=0;exitDx=0;exitDy=0;entryX=0.5;entryY=1;entryDx=0;entryDy=0;" parent="1" source="5FuBZbfDRRa5YEsP70LU-50" target="5FuBZbfDRRa5YEsP70LU-49" edge="1">
          <mxGeometry relative="1" as="geometry" />
        </mxCell>
        <mxCell id="5FuBZbfDRRa5YEsP70LU-50" value="Elem1" style="rounded=0;whiteSpace=wrap;html=1;" parent="1" vertex="1">
          <mxGeometry x="2120" y="790" width="120" height="60" as="geometry" />
        </mxCell>
        <mxCell id="5FuBZbfDRRa5YEsP70LU-174" style="edgeStyle=orthogonalEdgeStyle;rounded=0;orthogonalLoop=1;jettySize=auto;html=1;exitX=0.5;exitY=0;exitDx=0;exitDy=0;entryX=0.5;entryY=1;entryDx=0;entryDy=0;" parent="1" source="5FuBZbfDRRa5YEsP70LU-51" target="5FuBZbfDRRa5YEsP70LU-49" edge="1">
          <mxGeometry relative="1" as="geometry" />
        </mxCell>
        <mxCell id="5FuBZbfDRRa5YEsP70LU-51" value="Elem1" style="rounded=0;whiteSpace=wrap;html=1;" parent="1" vertex="1">
          <mxGeometry x="2270" y="790" width="120" height="60" as="geometry" />
        </mxCell>
        <mxCell id="5FuBZbfDRRa5YEsP70LU-173" style="edgeStyle=orthogonalEdgeStyle;rounded=0;orthogonalLoop=1;jettySize=auto;html=1;exitX=0.5;exitY=0;exitDx=0;exitDy=0;entryX=0.5;entryY=1;entryDx=0;entryDy=0;" parent="1" source="5FuBZbfDRRa5YEsP70LU-52" target="5FuBZbfDRRa5YEsP70LU-49" edge="1">
          <mxGeometry relative="1" as="geometry">
            <mxPoint x="2590.2380952380945" y="520" as="targetPoint" />
          </mxGeometry>
        </mxCell>
        <mxCell id="5FuBZbfDRRa5YEsP70LU-52" value="Elem1" style="rounded=0;whiteSpace=wrap;html=1;" parent="1" vertex="1">
          <mxGeometry x="2420" y="790" width="120" height="60" as="geometry" />
        </mxCell>
        <mxCell id="5FuBZbfDRRa5YEsP70LU-176" style="edgeStyle=orthogonalEdgeStyle;rounded=0;orthogonalLoop=1;jettySize=auto;html=1;exitX=0.5;exitY=0;exitDx=0;exitDy=0;entryX=0.5;entryY=1;entryDx=0;entryDy=0;" parent="1" source="5FuBZbfDRRa5YEsP70LU-53" target="5FuBZbfDRRa5YEsP70LU-49" edge="1">
          <mxGeometry relative="1" as="geometry" />
        </mxCell>
        <mxCell id="5FuBZbfDRRa5YEsP70LU-53" value="Displays" style="rounded=0;whiteSpace=wrap;html=1;" parent="1" vertex="1">
          <mxGeometry x="2600" y="790" width="120" height="60" as="geometry" />
        </mxCell>
        <mxCell id="5FuBZbfDRRa5YEsP70LU-178" style="edgeStyle=orthogonalEdgeStyle;rounded=0;orthogonalLoop=1;jettySize=auto;html=1;exitX=0.5;exitY=0;exitDx=0;exitDy=0;entryX=0.5;entryY=1;entryDx=0;entryDy=0;" parent="1" source="5FuBZbfDRRa5YEsP70LU-54" target="5FuBZbfDRRa5YEsP70LU-53" edge="1">
          <mxGeometry relative="1" as="geometry" />
        </mxCell>
        <mxCell id="5FuBZbfDRRa5YEsP70LU-54" value="" style="rounded=0;whiteSpace=wrap;html=1;" parent="1" vertex="1">
          <mxGeometry x="2680" y="920" width="120" height="60" as="geometry" />
        </mxCell>
        <mxCell id="5FuBZbfDRRa5YEsP70LU-177" style="edgeStyle=orthogonalEdgeStyle;rounded=0;orthogonalLoop=1;jettySize=auto;html=1;exitX=0.5;exitY=0;exitDx=0;exitDy=0;entryX=0.5;entryY=1;entryDx=0;entryDy=0;" parent="1" source="5FuBZbfDRRa5YEsP70LU-55" target="5FuBZbfDRRa5YEsP70LU-53" edge="1">
          <mxGeometry relative="1" as="geometry" />
        </mxCell>
        <mxCell id="5FuBZbfDRRa5YEsP70LU-55" value="" style="rounded=0;whiteSpace=wrap;html=1;" parent="1" vertex="1">
          <mxGeometry x="2510" y="920" width="120" height="60" as="geometry" />
        </mxCell>
        <mxCell id="5FuBZbfDRRa5YEsP70LU-179" style="edgeStyle=orthogonalEdgeStyle;rounded=0;orthogonalLoop=1;jettySize=auto;html=1;exitX=0.5;exitY=0;exitDx=0;exitDy=0;entryX=0.5;entryY=1;entryDx=0;entryDy=0;" parent="1" source="5FuBZbfDRRa5YEsP70LU-56" target="5FuBZbfDRRa5YEsP70LU-53" edge="1">
          <mxGeometry relative="1" as="geometry" />
        </mxCell>
        <mxCell id="5FuBZbfDRRa5YEsP70LU-56" value="" style="rounded=0;whiteSpace=wrap;html=1;" parent="1" vertex="1">
          <mxGeometry x="2840" y="920" width="120" height="60" as="geometry" />
        </mxCell>
        <mxCell id="5FuBZbfDRRa5YEsP70LU-187" style="edgeStyle=orthogonalEdgeStyle;rounded=0;orthogonalLoop=1;jettySize=auto;html=1;exitX=0.5;exitY=0;exitDx=0;exitDy=0;entryX=0.5;entryY=1;entryDx=0;entryDy=0;" parent="1" source="5FuBZbfDRRa5YEsP70LU-57" target="5FuBZbfDRRa5YEsP70LU-43" edge="1">
          <mxGeometry relative="1" as="geometry" />
        </mxCell>
        <mxCell id="5FuBZbfDRRa5YEsP70LU-57" value="Yoke" style="rounded=0;whiteSpace=wrap;html=1;" parent="1" vertex="1">
          <mxGeometry x="2070" y="546" width="120" height="60" as="geometry" />
        </mxCell>
        <mxCell id="5FuBZbfDRRa5YEsP70LU-180" style="edgeStyle=orthogonalEdgeStyle;rounded=0;orthogonalLoop=1;jettySize=auto;html=1;exitX=0.5;exitY=0;exitDx=0;exitDy=0;entryX=0.5;entryY=1;entryDx=0;entryDy=0;" parent="1" source="5FuBZbfDRRa5YEsP70LU-59" target="5FuBZbfDRRa5YEsP70LU-41" edge="1">
          <mxGeometry relative="1" as="geometry" />
        </mxCell>
        <mxCell id="5FuBZbfDRRa5YEsP70LU-59" value="Berlin" style="rounded=0;whiteSpace=wrap;html=1;" parent="1" vertex="1">
          <mxGeometry x="2560" y="258" width="120" height="60" as="geometry" />
        </mxCell>
        <mxCell id="5FuBZbfDRRa5YEsP70LU-77" value="&lt;u&gt;Main&lt;/u&gt;" style="swimlane;fontStyle=1;align=center;verticalAlign=top;childLayout=stackLayout;horizontal=1;startSize=26;horizontalStack=0;resizeParent=1;resizeParentMax=0;resizeLast=0;collapsible=1;marginBottom=0;whiteSpace=wrap;html=1;" parent="1" vertex="1">
          <mxGeometry x="350" y="120" width="160" height="112" as="geometry" />
        </mxCell>
        <mxCell id="5FuBZbfDRRa5YEsP70LU-78" value="+ field: type" style="text;strokeColor=none;fillColor=none;align=left;verticalAlign=top;spacingLeft=4;spacingRight=4;overflow=hidden;rotatable=0;points=[[0,0.5],[1,0.5]];portConstraint=eastwest;whiteSpace=wrap;html=1;" parent="5FuBZbfDRRa5YEsP70LU-77" vertex="1">
          <mxGeometry y="26" width="160" height="26" as="geometry" />
        </mxCell>
        <mxCell id="5FuBZbfDRRa5YEsP70LU-79" value="" style="line;strokeWidth=1;fillColor=none;align=left;verticalAlign=middle;spacingTop=-1;spacingLeft=3;spacingRight=3;rotatable=0;labelPosition=right;points=[];portConstraint=eastwest;strokeColor=inherit;" parent="5FuBZbfDRRa5YEsP70LU-77" vertex="1">
          <mxGeometry y="52" width="160" height="8" as="geometry" />
        </mxCell>
        <mxCell id="5FuBZbfDRRa5YEsP70LU-80" value="+ main(String args[])" style="text;strokeColor=none;fillColor=none;align=left;verticalAlign=top;spacingLeft=4;spacingRight=4;overflow=hidden;rotatable=0;points=[[0,0.5],[1,0.5]];portConstraint=eastwest;whiteSpace=wrap;html=1;" parent="5FuBZbfDRRa5YEsP70LU-77" vertex="1">
          <mxGeometry y="60" width="160" height="26" as="geometry" />
        </mxCell>
        <mxCell id="5FuBZbfDRRa5YEsP70LU-87" value="- runGame()" style="text;strokeColor=none;fillColor=none;align=left;verticalAlign=top;spacingLeft=4;spacingRight=4;overflow=hidden;rotatable=0;points=[[0,0.5],[1,0.5]];portConstraint=eastwest;whiteSpace=wrap;html=1;" parent="5FuBZbfDRRa5YEsP70LU-77" vertex="1">
          <mxGeometry y="86" width="160" height="26" as="geometry" />
        </mxCell>
        <mxCell id="5FuBZbfDRRa5YEsP70LU-83" value="&lt;u&gt;StartMenu&lt;/u&gt;" style="swimlane;fontStyle=1;align=center;verticalAlign=top;childLayout=stackLayout;horizontal=1;startSize=26;horizontalStack=0;resizeParent=1;resizeParentMax=0;resizeLast=0;collapsible=1;marginBottom=0;whiteSpace=wrap;html=1;" parent="1" vertex="1">
          <mxGeometry x="210" y="364" width="160" height="86" as="geometry" />
        </mxCell>
        <mxCell id="5FuBZbfDRRa5YEsP70LU-84" value="+ field: type" style="text;strokeColor=none;fillColor=none;align=left;verticalAlign=top;spacingLeft=4;spacingRight=4;overflow=hidden;rotatable=0;points=[[0,0.5],[1,0.5]];portConstraint=eastwest;whiteSpace=wrap;html=1;" parent="5FuBZbfDRRa5YEsP70LU-83" vertex="1">
          <mxGeometry y="26" width="160" height="26" as="geometry" />
        </mxCell>
        <mxCell id="5FuBZbfDRRa5YEsP70LU-85" value="" style="line;strokeWidth=1;fillColor=none;align=left;verticalAlign=middle;spacingTop=-1;spacingLeft=3;spacingRight=3;rotatable=0;labelPosition=right;points=[];portConstraint=eastwest;strokeColor=inherit;" parent="5FuBZbfDRRa5YEsP70LU-83" vertex="1">
          <mxGeometry y="52" width="160" height="8" as="geometry" />
        </mxCell>
        <mxCell id="5FuBZbfDRRa5YEsP70LU-86" value="+ method(type): type" style="text;strokeColor=none;fillColor=none;align=left;verticalAlign=top;spacingLeft=4;spacingRight=4;overflow=hidden;rotatable=0;points=[[0,0.5],[1,0.5]];portConstraint=eastwest;whiteSpace=wrap;html=1;" parent="5FuBZbfDRRa5YEsP70LU-83" vertex="1">
          <mxGeometry y="60" width="160" height="26" as="geometry" />
        </mxCell>
        <mxCell id="5FuBZbfDRRa5YEsP70LU-91" value="Mesh" style="swimlane;fontStyle=1;align=center;verticalAlign=top;childLayout=stackLayout;horizontal=1;startSize=26;horizontalStack=0;resizeParent=1;resizeParentMax=0;resizeLast=0;collapsible=1;marginBottom=0;whiteSpace=wrap;html=1;" parent="1" vertex="1">
          <mxGeometry x="870" y="124" width="160" height="86" as="geometry" />
        </mxCell>
        <mxCell id="5FuBZbfDRRa5YEsP70LU-92" value="+ field: type" style="text;strokeColor=none;fillColor=none;align=left;verticalAlign=top;spacingLeft=4;spacingRight=4;overflow=hidden;rotatable=0;points=[[0,0.5],[1,0.5]];portConstraint=eastwest;whiteSpace=wrap;html=1;" parent="5FuBZbfDRRa5YEsP70LU-91" vertex="1">
          <mxGeometry y="26" width="160" height="26" as="geometry" />
        </mxCell>
        <mxCell id="5FuBZbfDRRa5YEsP70LU-93" value="" style="line;strokeWidth=1;fillColor=none;align=left;verticalAlign=middle;spacingTop=-1;spacingLeft=3;spacingRight=3;rotatable=0;labelPosition=right;points=[];portConstraint=eastwest;strokeColor=inherit;" parent="5FuBZbfDRRa5YEsP70LU-91" vertex="1">
          <mxGeometry y="52" width="160" height="8" as="geometry" />
        </mxCell>
        <mxCell id="5FuBZbfDRRa5YEsP70LU-94" value="+ method(type): type" style="text;strokeColor=none;fillColor=none;align=left;verticalAlign=top;spacingLeft=4;spacingRight=4;overflow=hidden;rotatable=0;points=[[0,0.5],[1,0.5]];portConstraint=eastwest;whiteSpace=wrap;html=1;" parent="5FuBZbfDRRa5YEsP70LU-91" vertex="1">
          <mxGeometry y="60" width="160" height="26" as="geometry" />
        </mxCell>
        <mxCell id="5FuBZbfDRRa5YEsP70LU-95" value="ShaderPogramm" style="swimlane;fontStyle=1;align=center;verticalAlign=top;childLayout=stackLayout;horizontal=1;startSize=26;horizontalStack=0;resizeParent=1;resizeParentMax=0;resizeLast=0;collapsible=1;marginBottom=0;whiteSpace=wrap;html=1;" parent="1" vertex="1">
          <mxGeometry x="870" y="268" width="160" height="86" as="geometry" />
        </mxCell>
        <mxCell id="5FuBZbfDRRa5YEsP70LU-96" value="+ field: type" style="text;strokeColor=none;fillColor=none;align=left;verticalAlign=top;spacingLeft=4;spacingRight=4;overflow=hidden;rotatable=0;points=[[0,0.5],[1,0.5]];portConstraint=eastwest;whiteSpace=wrap;html=1;" parent="5FuBZbfDRRa5YEsP70LU-95" vertex="1">
          <mxGeometry y="26" width="160" height="26" as="geometry" />
        </mxCell>
        <mxCell id="5FuBZbfDRRa5YEsP70LU-97" value="" style="line;strokeWidth=1;fillColor=none;align=left;verticalAlign=middle;spacingTop=-1;spacingLeft=3;spacingRight=3;rotatable=0;labelPosition=right;points=[];portConstraint=eastwest;strokeColor=inherit;" parent="5FuBZbfDRRa5YEsP70LU-95" vertex="1">
          <mxGeometry y="52" width="160" height="8" as="geometry" />
        </mxCell>
        <mxCell id="5FuBZbfDRRa5YEsP70LU-98" value="+ method(type): type" style="text;strokeColor=none;fillColor=none;align=left;verticalAlign=top;spacingLeft=4;spacingRight=4;overflow=hidden;rotatable=0;points=[[0,0.5],[1,0.5]];portConstraint=eastwest;whiteSpace=wrap;html=1;" parent="5FuBZbfDRRa5YEsP70LU-95" vertex="1">
          <mxGeometry y="60" width="160" height="26" as="geometry" />
        </mxCell>
        <mxCell id="5FuBZbfDRRa5YEsP70LU-99" value="Texture" style="swimlane;fontStyle=1;align=center;verticalAlign=top;childLayout=stackLayout;horizontal=1;startSize=26;horizontalStack=0;resizeParent=1;resizeParentMax=0;resizeLast=0;collapsible=1;marginBottom=0;whiteSpace=wrap;html=1;" parent="1" vertex="1">
          <mxGeometry x="1150" y="124" width="160" height="86" as="geometry" />
        </mxCell>
        <mxCell id="5FuBZbfDRRa5YEsP70LU-100" value="+ field: type" style="text;strokeColor=none;fillColor=none;align=left;verticalAlign=top;spacingLeft=4;spacingRight=4;overflow=hidden;rotatable=0;points=[[0,0.5],[1,0.5]];portConstraint=eastwest;whiteSpace=wrap;html=1;" parent="5FuBZbfDRRa5YEsP70LU-99" vertex="1">
          <mxGeometry y="26" width="160" height="26" as="geometry" />
        </mxCell>
        <mxCell id="5FuBZbfDRRa5YEsP70LU-101" value="" style="line;strokeWidth=1;fillColor=none;align=left;verticalAlign=middle;spacingTop=-1;spacingLeft=3;spacingRight=3;rotatable=0;labelPosition=right;points=[];portConstraint=eastwest;strokeColor=inherit;" parent="5FuBZbfDRRa5YEsP70LU-99" vertex="1">
          <mxGeometry y="52" width="160" height="8" as="geometry" />
        </mxCell>
        <mxCell id="5FuBZbfDRRa5YEsP70LU-102" value="+ method(type): type" style="text;strokeColor=none;fillColor=none;align=left;verticalAlign=top;spacingLeft=4;spacingRight=4;overflow=hidden;rotatable=0;points=[[0,0.5],[1,0.5]];portConstraint=eastwest;whiteSpace=wrap;html=1;" parent="5FuBZbfDRRa5YEsP70LU-99" vertex="1">
          <mxGeometry y="60" width="160" height="26" as="geometry" />
        </mxCell>
        <mxCell id="5FuBZbfDRRa5YEsP70LU-107" value="vec3" style="swimlane;fontStyle=1;align=center;verticalAlign=top;childLayout=stackLayout;horizontal=1;startSize=26;horizontalStack=0;resizeParent=1;resizeParentMax=0;resizeLast=0;collapsible=1;marginBottom=0;whiteSpace=wrap;html=1;" parent="1" vertex="1">
          <mxGeometry x="-1920" y="96" width="160" height="86" as="geometry" />
        </mxCell>
        <mxCell id="5FuBZbfDRRa5YEsP70LU-108" value="+ field: type" style="text;strokeColor=none;fillColor=none;align=left;verticalAlign=top;spacingLeft=4;spacingRight=4;overflow=hidden;rotatable=0;points=[[0,0.5],[1,0.5]];portConstraint=eastwest;whiteSpace=wrap;html=1;" parent="5FuBZbfDRRa5YEsP70LU-107" vertex="1">
          <mxGeometry y="26" width="160" height="26" as="geometry" />
        </mxCell>
        <mxCell id="5FuBZbfDRRa5YEsP70LU-109" value="" style="line;strokeWidth=1;fillColor=none;align=left;verticalAlign=middle;spacingTop=-1;spacingLeft=3;spacingRight=3;rotatable=0;labelPosition=right;points=[];portConstraint=eastwest;strokeColor=inherit;" parent="5FuBZbfDRRa5YEsP70LU-107" vertex="1">
          <mxGeometry y="52" width="160" height="8" as="geometry" />
        </mxCell>
        <mxCell id="5FuBZbfDRRa5YEsP70LU-110" value="+ zero(): Vec3" style="text;strokeColor=none;fillColor=none;align=left;verticalAlign=top;spacingLeft=4;spacingRight=4;overflow=hidden;rotatable=0;points=[[0,0.5],[1,0.5]];portConstraint=eastwest;whiteSpace=wrap;html=1;" parent="5FuBZbfDRRa5YEsP70LU-107" vertex="1">
          <mxGeometry y="60" width="160" height="26" as="geometry" />
        </mxCell>
        <mxCell id="5FuBZbfDRRa5YEsP70LU-111" value="vec2" style="swimlane;fontStyle=1;align=center;verticalAlign=top;childLayout=stackLayout;horizontal=1;startSize=26;horizontalStack=0;resizeParent=1;resizeParentMax=0;resizeLast=0;collapsible=1;marginBottom=0;whiteSpace=wrap;html=1;" parent="1" vertex="1">
          <mxGeometry x="-2170" y="96" width="160" height="86" as="geometry" />
        </mxCell>
        <mxCell id="5FuBZbfDRRa5YEsP70LU-112" value="+ field: type" style="text;strokeColor=none;fillColor=none;align=left;verticalAlign=top;spacingLeft=4;spacingRight=4;overflow=hidden;rotatable=0;points=[[0,0.5],[1,0.5]];portConstraint=eastwest;whiteSpace=wrap;html=1;" parent="5FuBZbfDRRa5YEsP70LU-111" vertex="1">
          <mxGeometry y="26" width="160" height="26" as="geometry" />
        </mxCell>
        <mxCell id="5FuBZbfDRRa5YEsP70LU-113" value="" style="line;strokeWidth=1;fillColor=none;align=left;verticalAlign=middle;spacingTop=-1;spacingLeft=3;spacingRight=3;rotatable=0;labelPosition=right;points=[];portConstraint=eastwest;strokeColor=inherit;" parent="5FuBZbfDRRa5YEsP70LU-111" vertex="1">
          <mxGeometry y="52" width="160" height="8" as="geometry" />
        </mxCell>
        <mxCell id="5FuBZbfDRRa5YEsP70LU-114" value="+ method(type): type" style="text;strokeColor=none;fillColor=none;align=left;verticalAlign=top;spacingLeft=4;spacingRight=4;overflow=hidden;rotatable=0;points=[[0,0.5],[1,0.5]];portConstraint=eastwest;whiteSpace=wrap;html=1;" parent="5FuBZbfDRRa5YEsP70LU-111" vertex="1">
          <mxGeometry y="60" width="160" height="26" as="geometry" />
        </mxCell>
        <mxCell id="5FuBZbfDRRa5YEsP70LU-115" value="&lt;u&gt;Mat3&lt;/u&gt;" style="swimlane;fontStyle=1;align=center;verticalAlign=top;childLayout=stackLayout;horizontal=1;startSize=26;horizontalStack=0;resizeParent=1;resizeParentMax=0;resizeLast=0;collapsible=1;marginBottom=0;whiteSpace=wrap;html=1;" parent="1" vertex="1">
          <mxGeometry x="-2410" y="95" width="160" height="86" as="geometry" />
        </mxCell>
        <mxCell id="5FuBZbfDRRa5YEsP70LU-116" value="+ field: type" style="text;strokeColor=none;fillColor=none;align=left;verticalAlign=top;spacingLeft=4;spacingRight=4;overflow=hidden;rotatable=0;points=[[0,0.5],[1,0.5]];portConstraint=eastwest;whiteSpace=wrap;html=1;" parent="5FuBZbfDRRa5YEsP70LU-115" vertex="1">
          <mxGeometry y="26" width="160" height="26" as="geometry" />
        </mxCell>
        <mxCell id="5FuBZbfDRRa5YEsP70LU-117" value="" style="line;strokeWidth=1;fillColor=none;align=left;verticalAlign=middle;spacingTop=-1;spacingLeft=3;spacingRight=3;rotatable=0;labelPosition=right;points=[];portConstraint=eastwest;strokeColor=inherit;" parent="5FuBZbfDRRa5YEsP70LU-115" vertex="1">
          <mxGeometry y="52" width="160" height="8" as="geometry" />
        </mxCell>
        <mxCell id="5FuBZbfDRRa5YEsP70LU-118" value="+ method(type): type" style="text;strokeColor=none;fillColor=none;align=left;verticalAlign=top;spacingLeft=4;spacingRight=4;overflow=hidden;rotatable=0;points=[[0,0.5],[1,0.5]];portConstraint=eastwest;whiteSpace=wrap;html=1;" parent="5FuBZbfDRRa5YEsP70LU-115" vertex="1">
          <mxGeometry y="60" width="160" height="26" as="geometry" />
        </mxCell>
        <mxCell id="5FuBZbfDRRa5YEsP70LU-119" value="qot" style="swimlane;fontStyle=1;align=center;verticalAlign=top;childLayout=stackLayout;horizontal=1;startSize=26;horizontalStack=0;resizeParent=1;resizeParentMax=0;resizeLast=0;collapsible=1;marginBottom=0;whiteSpace=wrap;html=1;" parent="1" vertex="1">
          <mxGeometry x="-2610" y="228" width="160" height="86" as="geometry" />
        </mxCell>
        <mxCell id="5FuBZbfDRRa5YEsP70LU-120" value="+ field: type" style="text;strokeColor=none;fillColor=none;align=left;verticalAlign=top;spacingLeft=4;spacingRight=4;overflow=hidden;rotatable=0;points=[[0,0.5],[1,0.5]];portConstraint=eastwest;whiteSpace=wrap;html=1;" parent="5FuBZbfDRRa5YEsP70LU-119" vertex="1">
          <mxGeometry y="26" width="160" height="26" as="geometry" />
        </mxCell>
        <mxCell id="5FuBZbfDRRa5YEsP70LU-121" value="" style="line;strokeWidth=1;fillColor=none;align=left;verticalAlign=middle;spacingTop=-1;spacingLeft=3;spacingRight=3;rotatable=0;labelPosition=right;points=[];portConstraint=eastwest;strokeColor=inherit;" parent="5FuBZbfDRRa5YEsP70LU-119" vertex="1">
          <mxGeometry y="52" width="160" height="8" as="geometry" />
        </mxCell>
        <mxCell id="5FuBZbfDRRa5YEsP70LU-122" value="+ method(type): type" style="text;strokeColor=none;fillColor=none;align=left;verticalAlign=top;spacingLeft=4;spacingRight=4;overflow=hidden;rotatable=0;points=[[0,0.5],[1,0.5]];portConstraint=eastwest;whiteSpace=wrap;html=1;" parent="5FuBZbfDRRa5YEsP70LU-119" vertex="1">
          <mxGeometry y="60" width="160" height="26" as="geometry" />
        </mxCell>
        <mxCell id="5FuBZbfDRRa5YEsP70LU-123" value="&lt;u&gt;Mat4&lt;/u&gt;" style="swimlane;fontStyle=1;align=center;verticalAlign=top;childLayout=stackLayout;horizontal=1;startSize=26;horizontalStack=0;resizeParent=1;resizeParentMax=0;resizeLast=0;collapsible=1;marginBottom=0;whiteSpace=wrap;html=1;" parent="1" vertex="1">
          <mxGeometry x="-2610" y="95" width="160" height="86" as="geometry" />
        </mxCell>
        <mxCell id="5FuBZbfDRRa5YEsP70LU-124" value="+ field: type" style="text;strokeColor=none;fillColor=none;align=left;verticalAlign=top;spacingLeft=4;spacingRight=4;overflow=hidden;rotatable=0;points=[[0,0.5],[1,0.5]];portConstraint=eastwest;whiteSpace=wrap;html=1;" parent="5FuBZbfDRRa5YEsP70LU-123" vertex="1">
          <mxGeometry y="26" width="160" height="26" as="geometry" />
        </mxCell>
        <mxCell id="5FuBZbfDRRa5YEsP70LU-125" value="" style="line;strokeWidth=1;fillColor=none;align=left;verticalAlign=middle;spacingTop=-1;spacingLeft=3;spacingRight=3;rotatable=0;labelPosition=right;points=[];portConstraint=eastwest;strokeColor=inherit;" parent="5FuBZbfDRRa5YEsP70LU-123" vertex="1">
          <mxGeometry y="52" width="160" height="8" as="geometry" />
        </mxCell>
        <mxCell id="5FuBZbfDRRa5YEsP70LU-126" value="+ method(type): type" style="text;strokeColor=none;fillColor=none;align=left;verticalAlign=top;spacingLeft=4;spacingRight=4;overflow=hidden;rotatable=0;points=[[0,0.5],[1,0.5]];portConstraint=eastwest;whiteSpace=wrap;html=1;" parent="5FuBZbfDRRa5YEsP70LU-123" vertex="1">
          <mxGeometry y="60" width="160" height="26" as="geometry" />
        </mxCell>
        <mxCell id="5FuBZbfDRRa5YEsP70LU-127" value="Control Surface" style="swimlane;fontStyle=1;align=center;verticalAlign=top;childLayout=stackLayout;horizontal=1;startSize=26;horizontalStack=0;resizeParent=1;resizeParentMax=0;resizeLast=0;collapsible=1;marginBottom=0;whiteSpace=wrap;html=1;" parent="1" vertex="1">
          <mxGeometry x="-1530" y="1410" width="156" height="86" as="geometry" />
        </mxCell>
        <mxCell id="5FuBZbfDRRa5YEsP70LU-128" value="+ field: type" style="text;strokeColor=none;fillColor=none;align=left;verticalAlign=top;spacingLeft=4;spacingRight=4;overflow=hidden;rotatable=0;points=[[0,0.5],[1,0.5]];portConstraint=eastwest;whiteSpace=wrap;html=1;" parent="5FuBZbfDRRa5YEsP70LU-127" vertex="1">
          <mxGeometry y="26" width="156" height="26" as="geometry" />
        </mxCell>
        <mxCell id="5FuBZbfDRRa5YEsP70LU-129" value="" style="line;strokeWidth=1;fillColor=none;align=left;verticalAlign=middle;spacingTop=-1;spacingLeft=3;spacingRight=3;rotatable=0;labelPosition=right;points=[];portConstraint=eastwest;strokeColor=inherit;" parent="5FuBZbfDRRa5YEsP70LU-127" vertex="1">
          <mxGeometry y="52" width="156" height="8" as="geometry" />
        </mxCell>
        <mxCell id="5FuBZbfDRRa5YEsP70LU-130" value="+ method(type): type" style="text;strokeColor=none;fillColor=none;align=left;verticalAlign=top;spacingLeft=4;spacingRight=4;overflow=hidden;rotatable=0;points=[[0,0.5],[1,0.5]];portConstraint=eastwest;whiteSpace=wrap;html=1;" parent="5FuBZbfDRRa5YEsP70LU-127" vertex="1">
          <mxGeometry y="60" width="156" height="26" as="geometry" />
        </mxCell>
        <mxCell id="5FuBZbfDRRa5YEsP70LU-131" value="AltitudeIndticator" style="swimlane;fontStyle=1;align=center;verticalAlign=top;childLayout=stackLayout;horizontal=1;startSize=26;horizontalStack=0;resizeParent=1;resizeParentMax=0;resizeLast=0;collapsible=1;marginBottom=0;whiteSpace=wrap;html=1;" parent="1" vertex="1">
          <mxGeometry x="-860" y="1770" width="156" height="86" as="geometry" />
        </mxCell>
        <mxCell id="5FuBZbfDRRa5YEsP70LU-132" value="+ field: type" style="text;strokeColor=none;fillColor=none;align=left;verticalAlign=top;spacingLeft=4;spacingRight=4;overflow=hidden;rotatable=0;points=[[0,0.5],[1,0.5]];portConstraint=eastwest;whiteSpace=wrap;html=1;" parent="5FuBZbfDRRa5YEsP70LU-131" vertex="1">
          <mxGeometry y="26" width="156" height="26" as="geometry" />
        </mxCell>
        <mxCell id="5FuBZbfDRRa5YEsP70LU-133" value="" style="line;strokeWidth=1;fillColor=none;align=left;verticalAlign=middle;spacingTop=-1;spacingLeft=3;spacingRight=3;rotatable=0;labelPosition=right;points=[];portConstraint=eastwest;strokeColor=inherit;" parent="5FuBZbfDRRa5YEsP70LU-131" vertex="1">
          <mxGeometry y="52" width="156" height="8" as="geometry" />
        </mxCell>
        <mxCell id="5FuBZbfDRRa5YEsP70LU-134" value="+ method(type): type" style="text;strokeColor=none;fillColor=none;align=left;verticalAlign=top;spacingLeft=4;spacingRight=4;overflow=hidden;rotatable=0;points=[[0,0.5],[1,0.5]];portConstraint=eastwest;whiteSpace=wrap;html=1;" parent="5FuBZbfDRRa5YEsP70LU-131" vertex="1">
          <mxGeometry y="60" width="156" height="26" as="geometry" />
        </mxCell>
        <mxCell id="5FuBZbfDRRa5YEsP70LU-135" value="Altimeter" style="swimlane;fontStyle=1;align=center;verticalAlign=top;childLayout=stackLayout;horizontal=1;startSize=26;horizontalStack=0;resizeParent=1;resizeParentMax=0;resizeLast=0;collapsible=1;marginBottom=0;whiteSpace=wrap;html=1;" parent="1" vertex="1">
          <mxGeometry x="-690" y="1770" width="156" height="86" as="geometry" />
        </mxCell>
        <mxCell id="5FuBZbfDRRa5YEsP70LU-136" value="+ field: type" style="text;strokeColor=none;fillColor=none;align=left;verticalAlign=top;spacingLeft=4;spacingRight=4;overflow=hidden;rotatable=0;points=[[0,0.5],[1,0.5]];portConstraint=eastwest;whiteSpace=wrap;html=1;" parent="5FuBZbfDRRa5YEsP70LU-135" vertex="1">
          <mxGeometry y="26" width="156" height="26" as="geometry" />
        </mxCell>
        <mxCell id="5FuBZbfDRRa5YEsP70LU-137" value="" style="line;strokeWidth=1;fillColor=none;align=left;verticalAlign=middle;spacingTop=-1;spacingLeft=3;spacingRight=3;rotatable=0;labelPosition=right;points=[];portConstraint=eastwest;strokeColor=inherit;" parent="5FuBZbfDRRa5YEsP70LU-135" vertex="1">
          <mxGeometry y="52" width="156" height="8" as="geometry" />
        </mxCell>
        <mxCell id="5FuBZbfDRRa5YEsP70LU-138" value="+ method(type): type" style="text;strokeColor=none;fillColor=none;align=left;verticalAlign=top;spacingLeft=4;spacingRight=4;overflow=hidden;rotatable=0;points=[[0,0.5],[1,0.5]];portConstraint=eastwest;whiteSpace=wrap;html=1;" parent="5FuBZbfDRRa5YEsP70LU-135" vertex="1">
          <mxGeometry y="60" width="156" height="26" as="geometry" />
        </mxCell>
        <mxCell id="5FuBZbfDRRa5YEsP70LU-139" value="VerticalSpeedIndicator" style="swimlane;fontStyle=1;align=center;verticalAlign=top;childLayout=stackLayout;horizontal=1;startSize=26;horizontalStack=0;resizeParent=1;resizeParentMax=0;resizeLast=0;collapsible=1;marginBottom=0;whiteSpace=wrap;html=1;" parent="1" vertex="1">
          <mxGeometry x="-520" y="1770" width="156" height="86" as="geometry" />
        </mxCell>
        <mxCell id="5FuBZbfDRRa5YEsP70LU-140" value="+ field: type" style="text;strokeColor=none;fillColor=none;align=left;verticalAlign=top;spacingLeft=4;spacingRight=4;overflow=hidden;rotatable=0;points=[[0,0.5],[1,0.5]];portConstraint=eastwest;whiteSpace=wrap;html=1;" parent="5FuBZbfDRRa5YEsP70LU-139" vertex="1">
          <mxGeometry y="26" width="156" height="26" as="geometry" />
        </mxCell>
        <mxCell id="5FuBZbfDRRa5YEsP70LU-141" value="" style="line;strokeWidth=1;fillColor=none;align=left;verticalAlign=middle;spacingTop=-1;spacingLeft=3;spacingRight=3;rotatable=0;labelPosition=right;points=[];portConstraint=eastwest;strokeColor=inherit;" parent="5FuBZbfDRRa5YEsP70LU-139" vertex="1">
          <mxGeometry y="52" width="156" height="8" as="geometry" />
        </mxCell>
        <mxCell id="5FuBZbfDRRa5YEsP70LU-142" value="+ method(type): type" style="text;strokeColor=none;fillColor=none;align=left;verticalAlign=top;spacingLeft=4;spacingRight=4;overflow=hidden;rotatable=0;points=[[0,0.5],[1,0.5]];portConstraint=eastwest;whiteSpace=wrap;html=1;" parent="5FuBZbfDRRa5YEsP70LU-139" vertex="1">
          <mxGeometry y="60" width="156" height="26" as="geometry" />
        </mxCell>
        <mxCell id="5FuBZbfDRRa5YEsP70LU-143" value="HeadingIndicator" style="swimlane;fontStyle=1;align=center;verticalAlign=top;childLayout=stackLayout;horizontal=1;startSize=26;horizontalStack=0;resizeParent=1;resizeParentMax=0;resizeLast=0;collapsible=1;marginBottom=0;whiteSpace=wrap;html=1;" parent="1" vertex="1">
          <mxGeometry x="-350" y="1770" width="156" height="86" as="geometry" />
        </mxCell>
        <mxCell id="5FuBZbfDRRa5YEsP70LU-144" value="+ field: type" style="text;strokeColor=none;fillColor=none;align=left;verticalAlign=top;spacingLeft=4;spacingRight=4;overflow=hidden;rotatable=0;points=[[0,0.5],[1,0.5]];portConstraint=eastwest;whiteSpace=wrap;html=1;" parent="5FuBZbfDRRa5YEsP70LU-143" vertex="1">
          <mxGeometry y="26" width="156" height="26" as="geometry" />
        </mxCell>
        <mxCell id="5FuBZbfDRRa5YEsP70LU-145" value="" style="line;strokeWidth=1;fillColor=none;align=left;verticalAlign=middle;spacingTop=-1;spacingLeft=3;spacingRight=3;rotatable=0;labelPosition=right;points=[];portConstraint=eastwest;strokeColor=inherit;" parent="5FuBZbfDRRa5YEsP70LU-143" vertex="1">
          <mxGeometry y="52" width="156" height="8" as="geometry" />
        </mxCell>
        <mxCell id="5FuBZbfDRRa5YEsP70LU-146" value="+ method(type): type" style="text;strokeColor=none;fillColor=none;align=left;verticalAlign=top;spacingLeft=4;spacingRight=4;overflow=hidden;rotatable=0;points=[[0,0.5],[1,0.5]];portConstraint=eastwest;whiteSpace=wrap;html=1;" parent="5FuBZbfDRRa5YEsP70LU-143" vertex="1">
          <mxGeometry y="60" width="156" height="26" as="geometry" />
        </mxCell>
        <mxCell id="5FuBZbfDRRa5YEsP70LU-147" value="TurnIndicator" style="swimlane;fontStyle=1;align=center;verticalAlign=top;childLayout=stackLayout;horizontal=1;startSize=26;horizontalStack=0;resizeParent=1;resizeParentMax=0;resizeLast=0;collapsible=1;marginBottom=0;whiteSpace=wrap;html=1;" parent="1" vertex="1">
          <mxGeometry x="-180" y="1770" width="156" height="86" as="geometry" />
        </mxCell>
        <mxCell id="5FuBZbfDRRa5YEsP70LU-148" value="+ field: type" style="text;strokeColor=none;fillColor=none;align=left;verticalAlign=top;spacingLeft=4;spacingRight=4;overflow=hidden;rotatable=0;points=[[0,0.5],[1,0.5]];portConstraint=eastwest;whiteSpace=wrap;html=1;" parent="5FuBZbfDRRa5YEsP70LU-147" vertex="1">
          <mxGeometry y="26" width="156" height="26" as="geometry" />
        </mxCell>
        <mxCell id="5FuBZbfDRRa5YEsP70LU-149" value="" style="line;strokeWidth=1;fillColor=none;align=left;verticalAlign=middle;spacingTop=-1;spacingLeft=3;spacingRight=3;rotatable=0;labelPosition=right;points=[];portConstraint=eastwest;strokeColor=inherit;" parent="5FuBZbfDRRa5YEsP70LU-147" vertex="1">
          <mxGeometry y="52" width="156" height="8" as="geometry" />
        </mxCell>
        <mxCell id="5FuBZbfDRRa5YEsP70LU-150" value="+ method(type): type" style="text;strokeColor=none;fillColor=none;align=left;verticalAlign=top;spacingLeft=4;spacingRight=4;overflow=hidden;rotatable=0;points=[[0,0.5],[1,0.5]];portConstraint=eastwest;whiteSpace=wrap;html=1;" parent="5FuBZbfDRRa5YEsP70LU-147" vertex="1">
          <mxGeometry y="60" width="156" height="26" as="geometry" />
        </mxCell>
        <mxCell id="5FuBZbfDRRa5YEsP70LU-153" value="Extends" style="endArrow=block;endSize=16;endFill=0;html=1;rounded=0;exitX=1;exitY=0;exitDx=0;exitDy=0;" parent="1" source="5FuBZbfDRRa5YEsP70LU-9" target="5FuBZbfDRRa5YEsP70LU-4" edge="1">
          <mxGeometry width="160" relative="1" as="geometry">
            <mxPoint x="-920" y="1250" as="sourcePoint" />
            <mxPoint x="-760" y="1250" as="targetPoint" />
          </mxGeometry>
        </mxCell>
        <mxCell id="5FuBZbfDRRa5YEsP70LU-154" value="Extends" style="endArrow=block;endSize=16;endFill=0;html=1;rounded=0;exitX=0;exitY=0;exitDx=0;exitDy=0;entryX=0.515;entryY=1.026;entryDx=0;entryDy=0;entryPerimeter=0;" parent="1" source="5FuBZbfDRRa5YEsP70LU-17" target="5FuBZbfDRRa5YEsP70LU-4" edge="1">
          <mxGeometry width="160" relative="1" as="geometry">
            <mxPoint x="-1020" y="1250" as="sourcePoint" />
            <mxPoint x="-860" y="1250" as="targetPoint" />
          </mxGeometry>
        </mxCell>
        <mxCell id="5FuBZbfDRRa5YEsP70LU-155" value="Extends" style="endArrow=block;endSize=16;endFill=0;html=1;rounded=0;exitX=0.25;exitY=0;exitDx=0;exitDy=0;entryX=1.01;entryY=0.89;entryDx=0;entryDy=0;entryPerimeter=0;" parent="1" source="5FuBZbfDRRa5YEsP70LU-21" target="5FuBZbfDRRa5YEsP70LU-4" edge="1">
          <mxGeometry width="160" relative="1" as="geometry">
            <mxPoint x="-880" y="1230" as="sourcePoint" />
            <mxPoint x="-720" y="1230" as="targetPoint" />
          </mxGeometry>
        </mxCell>
        <mxCell id="5FuBZbfDRRa5YEsP70LU-157" value="Extends" style="endArrow=block;endSize=16;endFill=0;html=1;rounded=0;exitX=1;exitY=0;exitDx=0;exitDy=0;entryX=0;entryY=0.5;entryDx=0;entryDy=0;" parent="1" source="5FuBZbfDRRa5YEsP70LU-127" target="5FuBZbfDRRa5YEsP70LU-4" edge="1">
          <mxGeometry width="160" relative="1" as="geometry">
            <mxPoint x="-1300" y="1080" as="sourcePoint" />
            <mxPoint x="-1140" y="1080" as="targetPoint" />
          </mxGeometry>
        </mxCell>
        <mxCell id="5FuBZbfDRRa5YEsP70LU-158" value="Extends" style="endArrow=block;endSize=16;endFill=0;html=1;rounded=0;exitX=0.5;exitY=0;exitDx=0;exitDy=0;entryX=0.578;entryY=1.04;entryDx=0;entryDy=0;entryPerimeter=0;" parent="1" source="5FuBZbfDRRa5YEsP70LU-13" target="5FuBZbfDRRa5YEsP70LU-89" edge="1">
          <mxGeometry width="160" relative="1" as="geometry">
            <mxPoint x="-1270" y="1680" as="sourcePoint" />
            <mxPoint x="-1110" y="1680" as="targetPoint" />
          </mxGeometry>
        </mxCell>
        <mxCell id="5FuBZbfDRRa5YEsP70LU-159" value="Extends" style="endArrow=block;endSize=16;endFill=0;html=1;rounded=0;exitX=0.5;exitY=0;exitDx=0;exitDy=0;entryX=0.444;entryY=1.136;entryDx=0;entryDy=0;entryPerimeter=0;" parent="1" source="5FuBZbfDRRa5YEsP70LU-33" target="5FuBZbfDRRa5YEsP70LU-20" edge="1">
          <mxGeometry width="160" relative="1" as="geometry">
            <mxPoint x="-840" y="1630" as="sourcePoint" />
            <mxPoint x="-680" y="1630" as="targetPoint" />
          </mxGeometry>
        </mxCell>
        <mxCell id="5FuBZbfDRRa5YEsP70LU-160" value="Extends" style="endArrow=block;endSize=16;endFill=0;html=1;rounded=0;exitX=0.5;exitY=0;exitDx=0;exitDy=0;entryX=0.511;entryY=1.026;entryDx=0;entryDy=0;entryPerimeter=0;" parent="1" source="5FuBZbfDRRa5YEsP70LU-131" target="5FuBZbfDRRa5YEsP70LU-20" edge="1">
          <mxGeometry width="160" relative="1" as="geometry">
            <mxPoint x="-800" y="1710" as="sourcePoint" />
            <mxPoint x="-640" y="1710" as="targetPoint" />
          </mxGeometry>
        </mxCell>
        <mxCell id="5FuBZbfDRRa5YEsP70LU-161" value="Extends" style="endArrow=block;endSize=16;endFill=0;html=1;rounded=0;exitX=0.5;exitY=0;exitDx=0;exitDy=0;" parent="1" source="5FuBZbfDRRa5YEsP70LU-135" target="5FuBZbfDRRa5YEsP70LU-20" edge="1">
          <mxGeometry width="160" relative="1" as="geometry">
            <mxPoint x="-810" y="1600" as="sourcePoint" />
            <mxPoint x="-650" y="1600" as="targetPoint" />
          </mxGeometry>
        </mxCell>
        <mxCell id="5FuBZbfDRRa5YEsP70LU-162" value="Extends" style="endArrow=block;endSize=16;endFill=0;html=1;rounded=0;exitX=0.25;exitY=0;exitDx=0;exitDy=0;entryX=0.639;entryY=1.136;entryDx=0;entryDy=0;entryPerimeter=0;" parent="1" source="5FuBZbfDRRa5YEsP70LU-139" target="5FuBZbfDRRa5YEsP70LU-20" edge="1">
          <mxGeometry width="160" relative="1" as="geometry">
            <mxPoint x="-810" y="1600" as="sourcePoint" />
            <mxPoint x="-650" y="1600" as="targetPoint" />
          </mxGeometry>
        </mxCell>
        <mxCell id="5FuBZbfDRRa5YEsP70LU-163" value="Extends" style="endArrow=block;endSize=16;endFill=0;html=1;rounded=0;exitX=0.5;exitY=0;exitDx=0;exitDy=0;" parent="1" source="5FuBZbfDRRa5YEsP70LU-143" target="5FuBZbfDRRa5YEsP70LU-20" edge="1">
          <mxGeometry width="160" relative="1" as="geometry">
            <mxPoint x="-430" y="1680" as="sourcePoint" />
            <mxPoint x="-270" y="1680" as="targetPoint" />
          </mxGeometry>
        </mxCell>
        <mxCell id="5FuBZbfDRRa5YEsP70LU-164" value="Extends" style="endArrow=block;endSize=16;endFill=0;html=1;rounded=0;exitX=0.5;exitY=0;exitDx=0;exitDy=0;" parent="1" source="5FuBZbfDRRa5YEsP70LU-147" target="5FuBZbfDRRa5YEsP70LU-20" edge="1">
          <mxGeometry width="160" relative="1" as="geometry">
            <mxPoint x="-720" y="1630" as="sourcePoint" />
            <mxPoint x="-560" y="1630" as="targetPoint" />
          </mxGeometry>
        </mxCell>
        <mxCell id="5FuBZbfDRRa5YEsP70LU-165" value="" style="endArrow=diamondThin;endFill=1;endSize=24;html=1;rounded=0;entryX=1;entryY=0.5;entryDx=0;entryDy=0;exitX=0;exitY=0.5;exitDx=0;exitDy=0;" parent="1" source="5FuBZbfDRRa5YEsP70LU-24" target="5FuBZbfDRRa5YEsP70LU-18" edge="1">
          <mxGeometry width="160" relative="1" as="geometry">
            <mxPoint x="-600" y="1490" as="sourcePoint" />
            <mxPoint x="-680" y="1550" as="targetPoint" />
          </mxGeometry>
        </mxCell>
        <mxCell id="5FuBZbfDRRa5YEsP70LU-167" value="" style="endArrow=diamondThin;endFill=1;endSize=24;html=1;rounded=0;exitX=1;exitY=0.5;exitDx=0;exitDy=0;entryX=0;entryY=0.5;entryDx=0;entryDy=0;" parent="1" source="5FuBZbfDRRa5YEsP70LU-128" target="5FuBZbfDRRa5YEsP70LU-10" edge="1">
          <mxGeometry width="160" relative="1" as="geometry">
            <mxPoint x="-1160" y="1580" as="sourcePoint" />
            <mxPoint x="-1000" y="1580" as="targetPoint" />
          </mxGeometry>
        </mxCell>
        <mxCell id="5FuBZbfDRRa5YEsP70LU-168" value="" style="endArrow=diamondThin;endFill=1;endSize=24;html=1;rounded=0;exitX=0;exitY=0.5;exitDx=0;exitDy=0;entryX=1;entryY=0.5;entryDx=0;entryDy=0;" parent="1" source="5FuBZbfDRRa5YEsP70LU-18" target="5FuBZbfDRRa5YEsP70LU-12" edge="1">
          <mxGeometry width="160" relative="1" as="geometry">
            <mxPoint x="-1000" y="1540" as="sourcePoint" />
            <mxPoint x="-840" y="1540" as="targetPoint" />
          </mxGeometry>
        </mxCell>
        <mxCell id="5FuBZbfDRRa5YEsP70LU-170" value="" style="endArrow=diamondThin;endFill=0;endSize=24;html=1;rounded=0;exitX=0.5;exitY=0;exitDx=0;exitDy=0;" parent="1" source="5FuBZbfDRRa5YEsP70LU-83" target="5FuBZbfDRRa5YEsP70LU-77" edge="1">
          <mxGeometry width="160" relative="1" as="geometry">
            <mxPoint x="250" y="280" as="sourcePoint" />
            <mxPoint x="410" y="280" as="targetPoint" />
          </mxGeometry>
        </mxCell>
        <mxCell id="5FuBZbfDRRa5YEsP70LU-189" value="&lt;font style=&quot;font-size: 32px;&quot;&gt;Entity Baum&lt;/font&gt;" style="text;html=1;align=center;verticalAlign=middle;resizable=0;points=[];autosize=1;strokeColor=none;fillColor=none;" parent="1" vertex="1">
          <mxGeometry x="2300" y="112" width="200" height="50" as="geometry" />
        </mxCell>
        <mxCell id="5FuBZbfDRRa5YEsP70LU-202" style="edgeStyle=orthogonalEdgeStyle;rounded=0;orthogonalLoop=1;jettySize=auto;html=1;exitX=0.5;exitY=0;exitDx=0;exitDy=0;entryX=0.5;entryY=1;entryDx=0;entryDy=0;" parent="1" source="5FuBZbfDRRa5YEsP70LU-191" target="5FuBZbfDRRa5YEsP70LU-199" edge="1">
          <mxGeometry relative="1" as="geometry" />
        </mxCell>
        <mxCell id="5FuBZbfDRRa5YEsP70LU-191" value="Graphics" style="html=1;whiteSpace=wrap;" parent="1" vertex="1">
          <mxGeometry x="-2894" y="1330" width="110" height="50" as="geometry" />
        </mxCell>
        <mxCell id="5FuBZbfDRRa5YEsP70LU-203" style="edgeStyle=orthogonalEdgeStyle;rounded=0;orthogonalLoop=1;jettySize=auto;html=1;exitX=0.5;exitY=0;exitDx=0;exitDy=0;entryX=0.5;entryY=1;entryDx=0;entryDy=0;" parent="1" source="5FuBZbfDRRa5YEsP70LU-192" target="5FuBZbfDRRa5YEsP70LU-199" edge="1">
          <mxGeometry relative="1" as="geometry" />
        </mxCell>
        <mxCell id="5FuBZbfDRRa5YEsP70LU-192" value="Loading" style="html=1;whiteSpace=wrap;" parent="1" vertex="1">
          <mxGeometry x="-2700" y="1330" width="110" height="50" as="geometry" />
        </mxCell>
        <mxCell id="5FuBZbfDRRa5YEsP70LU-201" style="edgeStyle=orthogonalEdgeStyle;rounded=0;orthogonalLoop=1;jettySize=auto;html=1;exitX=0.5;exitY=0;exitDx=0;exitDy=0;entryX=0.5;entryY=1;entryDx=0;entryDy=0;" parent="1" source="5FuBZbfDRRa5YEsP70LU-193" target="5FuBZbfDRRa5YEsP70LU-199" edge="1">
          <mxGeometry relative="1" as="geometry" />
        </mxCell>
        <mxCell id="5FuBZbfDRRa5YEsP70LU-193" value="Math" style="html=1;whiteSpace=wrap;" parent="1" vertex="1">
          <mxGeometry x="-3080" y="1330" width="110" height="50" as="geometry" />
        </mxCell>
        <mxCell id="5FuBZbfDRRa5YEsP70LU-200" style="edgeStyle=orthogonalEdgeStyle;rounded=0;orthogonalLoop=1;jettySize=auto;html=1;exitX=0.5;exitY=0;exitDx=0;exitDy=0;" parent="1" source="5FuBZbfDRRa5YEsP70LU-194" target="5FuBZbfDRRa5YEsP70LU-199" edge="1">
          <mxGeometry relative="1" as="geometry" />
        </mxCell>
        <mxCell id="5FuBZbfDRRa5YEsP70LU-194" value="SimObjects" style="html=1;whiteSpace=wrap;" parent="1" vertex="1">
          <mxGeometry x="-3270" y="1331" width="110" height="50" as="geometry" />
        </mxCell>
        <mxCell id="5FuBZbfDRRa5YEsP70LU-204" style="edgeStyle=orthogonalEdgeStyle;rounded=0;orthogonalLoop=1;jettySize=auto;html=1;exitX=0.5;exitY=0;exitDx=0;exitDy=0;entryX=0.5;entryY=1;entryDx=0;entryDy=0;" parent="1" source="5FuBZbfDRRa5YEsP70LU-196" target="5FuBZbfDRRa5YEsP70LU-199" edge="1">
          <mxGeometry relative="1" as="geometry" />
        </mxCell>
        <mxCell id="5FuBZbfDRRa5YEsP70LU-196" value="GameControll" style="html=1;whiteSpace=wrap;" parent="1" vertex="1">
          <mxGeometry x="-2510" y="1331" width="110" height="50" as="geometry" />
        </mxCell>
        <mxCell id="5FuBZbfDRRa5YEsP70LU-205" style="edgeStyle=orthogonalEdgeStyle;rounded=0;orthogonalLoop=1;jettySize=auto;html=1;exitX=0.5;exitY=0;exitDx=0;exitDy=0;entryX=0.5;entryY=1;entryDx=0;entryDy=0;" parent="1" source="5FuBZbfDRRa5YEsP70LU-198" target="5FuBZbfDRRa5YEsP70LU-194" edge="1">
          <mxGeometry relative="1" as="geometry" />
        </mxCell>
        <mxCell id="5FuBZbfDRRa5YEsP70LU-198" value="Aircraft" style="html=1;whiteSpace=wrap;" parent="1" vertex="1">
          <mxGeometry x="-3270" y="1430" width="110" height="50" as="geometry" />
        </mxCell>
        <mxCell id="5FuBZbfDRRa5YEsP70LU-199" value="Main" style="html=1;whiteSpace=wrap;" parent="1" vertex="1">
          <mxGeometry x="-2894" y="1169" width="110" height="50" as="geometry" />
        </mxCell>
        <mxCell id="5FuBZbfDRRa5YEsP70LU-206" value="&lt;font style=&quot;font-size: 42px;&quot;&gt;Packages&lt;/font&gt;" style="text;html=1;align=center;verticalAlign=middle;resizable=0;points=[];autosize=1;strokeColor=none;fillColor=none;" parent="1" vertex="1">
          <mxGeometry x="-2925" y="1063" width="210" height="60" as="geometry" />
        </mxCell>
        <mxCell id="5FuBZbfDRRa5YEsP70LU-208" value="&lt;font style=&quot;font-size: 22px;&quot;&gt;Aircraft Package&lt;/font&gt;" style="text;html=1;align=center;verticalAlign=middle;resizable=0;points=[];autosize=1;strokeColor=none;fillColor=none;" parent="1" vertex="1">
          <mxGeometry x="-265" y="1205" width="180" height="40" as="geometry" />
        </mxCell>
        <mxCell id="5FuBZbfDRRa5YEsP70LU-210" value="&lt;span style=&quot;font-size: 22px;&quot;&gt;Math Package&lt;/span&gt;" style="text;html=1;align=center;verticalAlign=middle;resizable=0;points=[];autosize=1;strokeColor=none;fillColor=none;" parent="1" vertex="1">
          <mxGeometry x="-1865" y="40" width="160" height="40" as="geometry" />
        </mxCell>
        <mxCell id="5FuBZbfDRRa5YEsP70LU-211" value="" style="rounded=0;whiteSpace=wrap;html=1;fillColor=none;" parent="1" vertex="1">
          <mxGeometry x="780" y="90" width="650" height="410" as="geometry" />
        </mxCell>
        <mxCell id="5FuBZbfDRRa5YEsP70LU-213" value="&lt;font style=&quot;font-size: 22px;&quot;&gt;Graphic Package&lt;/font&gt;" style="text;html=1;align=center;verticalAlign=middle;resizable=0;points=[];autosize=1;strokeColor=none;fillColor=none;" parent="1" vertex="1">
          <mxGeometry x="1205" y="40" width="190" height="40" as="geometry" />
        </mxCell>
        <mxCell id="5FuBZbfDRRa5YEsP70LU-214" value="" style="rounded=0;whiteSpace=wrap;html=1;fillColor=none;" parent="1" vertex="1">
          <mxGeometry x="130" y="80" width="530" height="420" as="geometry" />
        </mxCell>
        <mxCell id="5FuBZbfDRRa5YEsP70LU-215" value="&lt;font style=&quot;font-size: 22px;&quot;&gt;GameControll Package&lt;/font&gt;" style="text;html=1;align=center;verticalAlign=middle;resizable=0;points=[];autosize=1;strokeColor=none;fillColor=none;" parent="1" vertex="1">
          <mxGeometry x="440" y="30" width="250" height="40" as="geometry" />
        </mxCell>
        <mxCell id="5FuBZbfDRRa5YEsP70LU-218" value="&lt;font style=&quot;font-size: 22px;&quot;&gt;Sim Objects Package&lt;/font&gt;" style="text;html=1;align=center;verticalAlign=middle;resizable=0;points=[];autosize=1;strokeColor=none;fillColor=none;" parent="1" vertex="1">
          <mxGeometry x="-217" y="141" width="230" height="40" as="geometry" />
        </mxCell>
        <mxCell id="BwUuoFr5A31p5iebIewd-2" value="UnitConversion" style="swimlane;fontStyle=1;align=center;verticalAlign=top;childLayout=stackLayout;horizontal=1;startSize=26;horizontalStack=0;resizeParent=1;resizeParentMax=0;resizeLast=0;collapsible=1;marginBottom=0;whiteSpace=wrap;html=1;" parent="1" vertex="1">
          <mxGeometry x="-2410" y="226" width="160" height="86" as="geometry" />
        </mxCell>
        <mxCell id="BwUuoFr5A31p5iebIewd-3" value="+ field: type" style="text;strokeColor=none;fillColor=none;align=left;verticalAlign=top;spacingLeft=4;spacingRight=4;overflow=hidden;rotatable=0;points=[[0,0.5],[1,0.5]];portConstraint=eastwest;whiteSpace=wrap;html=1;" parent="BwUuoFr5A31p5iebIewd-2" vertex="1">
          <mxGeometry y="26" width="160" height="26" as="geometry" />
        </mxCell>
        <mxCell id="BwUuoFr5A31p5iebIewd-4" value="" style="line;strokeWidth=1;fillColor=none;align=left;verticalAlign=middle;spacingTop=-1;spacingLeft=3;spacingRight=3;rotatable=0;labelPosition=right;points=[];portConstraint=eastwest;strokeColor=inherit;" parent="BwUuoFr5A31p5iebIewd-2" vertex="1">
          <mxGeometry y="52" width="160" height="8" as="geometry" />
        </mxCell>
        <mxCell id="BwUuoFr5A31p5iebIewd-5" value="+ mpsToKnots(float mps)" style="text;strokeColor=none;fillColor=none;align=left;verticalAlign=top;spacingLeft=4;spacingRight=4;overflow=hidden;rotatable=0;points=[[0,0.5],[1,0.5]];portConstraint=eastwest;whiteSpace=wrap;html=1;" parent="BwUuoFr5A31p5iebIewd-2" vertex="1">
          <mxGeometry y="60" width="160" height="26" as="geometry" />
        </mxCell>
      </root>
    </mxGraphModel>
  </diagram>
</mxfile>
